<svg xmlns="http://www.w3.org/2000/svg" width="232.30768615677482" height="227.6923013720991" style=""><rect id="backgroundrect" width="100%" height="100%" x="0" y="0" fill="none" stroke="none" class="" style=""/>
 
<g class="currentLayer" style=""><title>Layer 1</title><g id="svg_1" class="">
  <g id="svg_56">
   <g id="svg_4" fill-rule="evenodd">
    <path id="svg_5" fill="#fdad00" d="m116.40168973350603,15.471475425772141 c-34.45812419049867,0 -88.5800474099993,8.503588601135942 -101.03258741723397,27.40578272721527 c-1.9669795918001336,2.989449166196239 -4.140851854079243,8.002848369686822 -0.284852227471056,16.98318964627432 l0.3088397834686185,0.73761734692505 l0.20989111497867272,0.7735986809213937 c13.687899141109158,51.54326094976264 36.515057117289665,135.09791537827255 41.966229217735766,149.1846076378412 c3.3912407291554123,2.2428364857721035 16.368508523836777,9.052303944580187 48.52682578306914,9.052303944580187 c3.121380724182833,0 6.410674340348604,-0.06296733449360185 9.8768761819964,-0.20689267047897747 l1.7780775883193276,0 c39.12070538752491,0 53.78309899103505,-6.767489235812349 57.537151504653586,-8.986338165586888 c5.550120768936046,-14.500477600526592 28.27233318762722,-97.66533424407612 41.918254105740644,-149.0436807463555 l0.20389422597928214,-0.7735986809213937 l0.31483667246800917,-0.73761734692505 c3.8769887381060553,-9.031314833082318 1.7001180313272493,-14.065703148070767 -0.28185378297136066,-17.06714609226579 c-12.41655867323834,-18.845223680585118 -66.55947100423683,-27.3218262812238 -101.04158275073306,-27.3218262812238 " stroke-width="0"/>
    <path stroke="null" id="svg_6" fill="#B3B3B3" d="m214.81143879818802,58.43330215829775 l-0.30481287250552774,0.7141365280479356 l-0.1974025936374418,0.7489724562453964 c-13.211509277442063,49.742743002807586 -35.21037394658224,130.26009009246164 -40.58380837492924,144.29895116537114 c-3.63454351119419,2.148211574250718 -17.830169259436758,8.700262572759957 -55.70548571623571,8.700262572759957 l-1.7214729530540795,0 c-3.355856085614508,0.1393437127898412 -6.5404380229619195,0.20030508791314683 -9.56245029642485,0.20030508791314683 c-31.134573345923883,0 -43.698718455881725,-6.5926919152581105 -46.98200019082561,-8.764129440603467 c-5.277637125026234,-13.638250897083202 -27.378104086038583,-94.5329852099134 -40.63315977294972,-144.43539238388527 l-0.20030508791314683,-0.7489724562453964 l-0.2990078839541177,-0.7141365280479356 c-3.736148801510866,-8.694457584208548 -1.6285781440090188,-13.548255583869347 0.27578493130397735,-16.442537120089757 c12.056118658374464,-18.30045129165797 64.45509968701616,-26.53333432647242 97.81626694485729,-26.53333432647242 c33.384390210491276,0 85.80369169750739,8.206754589444103 97.8249774261289,26.452049494530176 c1.9188755466915215,2.905894511767729 4.026449202637869,7.780015968247464 0.2728824370282723,16.523821952031998 zm-98.09785686471267,-53.58339958891083 c-26.513013868097985,0 -129.34855097077624,7.678410677930788 -107.84609977767214,57.76661046843728 c0,0 38.67654280534053,145.63432641397742 42.42720707667443,148.5053849975477 c0,0 12.970563272780048,14.4452822341762 65.41889270099772,12.378352493423222 c54.21044629646512,0.20611307490905667 65.41889270099772,-12.378352493423222 65.41889270099772,-12.378352493423222 c3.753566765609596,-2.871058583570268 42.42430458239872,-148.5053849975477 42.42430458239872,-148.5053849975477 c21.50535368737982,-50.08819979050648 -80.72926515311451,-57.76661046843728 -107.84319728339644,-57.76661046843728 z" stroke-width="0"/>
    <path id="svg_7" fill="#E6E6E6" d="m37.31187808260094,89.9608306512402 s80.24137325634658,-32.524127488195184 155.22647330472725,0 l8.674499937618576,-52.95552830911914 s-76.31640940624541,-35.9153682173506 -172.58147006896382,0 l8.680496826617965,52.95552830911914 " stroke-width="0"/>
    <path id="svg_8" fill="#7f1602" d="m106.59093824806138,75.95209794866363 l5.7750041064131965,-30.85999079086428 c0.7556080139232221,-4.080882964085337 2.0119562592955633,-4.080882964085337 2.77056271771848,0 l5.706039882920203,30.5271634513981 l-14.251606707051879,0.33282733946618115 " stroke-width="0"/>
    <path id="svg_9" fill="#ca8a00" d="m88.72020902987725,137.11736729794856 c3.8170198481121487,-5.598095880931171 10.422593080940949,-10.476565081935465 11.292141985852593,-16.05367185136877 c1.2983264683680757,-8.377653932148737 -5.31024520896042,-13.678903807610073 -8.617529492124364,-14.986225609477234 c-8.0178405921853,-3.1663573916782632 -20.983114608867883,0.8995333499085976 -24.884090902971497,8.677498382118271 c-2.4227431557538224,4.8394894225082545 -2.035943815293126,10.884353533894028 -1.4872284718488813,16.101646963363894 c0.6146811224375417,5.822979218408321 2.4347369337526037,11.436067321837971 4.317760079561268,16.962200534776454 c1.0554524638927545,3.1063885016843567 2.1258971502839854,6.209778558869018 3.04641961169045,9.361143728048804 c3.0344258336916687,10.419594636441253 1.4332564708543654,18.770262568092733 5.721032105418679,28.710106084582733 c2.0419407042925166,4.734543865018918 7.100316575278529,7.921890368195049 12.122711112268199,6.035868777886688 c5.5471223244363514,-2.0959127052870326 7.46612680424136,-7.912895034695963 7.819943255205407,-13.349074912643585 c0.5667060104424165,-8.63851860362223 -4.299769412563096,-13.924776256585089 -9.121268168073177,-20.422405487424857 c-2.926481831702637,-3.9339591836002663 -5.58610210293239,-8.806431495605171 -4.128858076080462,-13.846816699593012 c0.7496111249238313,-2.620640492733714 2.4047524887556504,-4.962425646995763 3.9189669611017894,-7.190269910269389 " stroke-width="0"/>
    <path id="svg_10" fill="#ca8a00" d="m97.40670274549461,96.59338988456625 c0,3.6401116226301244 -2.6446280487312768,6.5905810103303235 -5.9039372199000955,6.5905810103303235 c-3.253312282169427,0 -5.900938775400399,-2.9504693877001995 -5.900938775400399,-6.5905810103303235 c0,-3.6371131781304293 2.6476264932309723,-6.587582565830629 5.900938775400399,-6.587582565830629 c3.2593091711688182,0 5.9039372199000955,2.9504693877001995 5.9039372199000955,6.587582565830629 " stroke-width="0"/>
    <path id="svg_11" fill="#ca8a00" d="m84.93917051576148,96.82427011104278 c0,2.110904927785509 -1.1963793553784348,3.823016737111539 -2.6656171602291443,3.823016737111539 c-1.4782331383497953,0 -2.6686156047288394,-1.7121118093260306 -2.6686156047288394,-3.823016737111539 c0,-2.1079064832858134 1.190382466379044,-3.8200182926118442 2.6686156047288394,-3.8200182926118442 c1.4692378048507093,0 2.6656171602291443,1.7121118093260306 2.6656171602291443,3.8200182926118442 " stroke-width="0"/>
    <path id="svg_12" fill="#ca8a00" d="m78.16568439094974,101.83167242553398 c0,1.5651880288409594 -1.0194711298964108,2.8335300522120823 -2.2758193752687523,2.8335300522120823 c-1.2653435788714271,0 -2.2818162642681425,-1.2683420233711225 -2.2818162642681425,-2.8335300522120823 c0,-1.5621895843412643 1.0164726853967154,-2.8305316077123868 2.2818162642681425,-2.8305316077123868 c1.2563482453723411,0 2.2758193752687523,1.2683420233711225 2.2758193752687523,2.8305316077123868 " stroke-width="0"/>
    <path id="svg_13" fill="#ca8a00" d="m72.16279850255967,104.8301169252293 c0,1.5651880288409594 -1.0164726853967154,2.8335300522120823 -2.2728209307690563,2.8335300522120823 c-1.2623451343717318,0 -2.278817819768447,-1.2683420233711225 -2.278817819768447,-2.8335300522120823 s1.0164726853967154,-2.8305316077123868 2.278817819768447,-2.8305316077123868 c1.2563482453723411,0 2.2728209307690563,1.2653435788714271 2.2728209307690563,2.8305316077123868 " stroke-width="0"/>
    <path id="svg_14" fill="#ca8a00" d="m69.16735244736404,110.82700592461995 c0,1.5651880288409594 -1.0164726853967154,2.8335300522120823 -2.2758193752687523,2.8335300522120823 c-1.2623451343717318,0 -2.278817819768447,-1.2683420233711225 -2.278817819768447,-2.8335300522120823 s1.0164726853967154,-2.8305316077123868 2.278817819768447,-2.8305316077123868 c1.2593466898720367,0 2.2758193752687523,1.2653435788714271 2.2758193752687523,2.8305316077123868 " stroke-width="0"/>
    <path id="svg_15" fill="#ca8a00" d="m142.03255223446013,137.11736729794856 c-3.814021403612453,-5.598095880931171 -10.422593080940949,-10.476565081935465 -11.286145096853204,-16.05367185136877 c-1.2983264683680757,-8.377653932148737 5.31024520896042,-13.678903807610073 8.611532603124973,-14.986225609477234 c8.0178405921853,-3.1663573916782632 20.983114608867883,0.8995333499085976 24.884090902971497,8.677498382118271 c2.428740044753213,4.8394894225082545 2.0419407042925166,10.884353533894028 1.4902269163485766,16.101646963363894 c-0.6176795669372369,5.822979218408321 -2.4347369337526037,11.436067321837971 -4.311763190561877,16.962200534776454 c-1.0644477973918405,3.1063885016843567 -2.1348924837830716,6.209778558869018 -3.055414945189536,9.361143728048804 c-3.0344258336916687,10.419594636441253 -1.4272595818549747,18.770262568092733 -5.7180336609189855,28.710106084582733 c-2.0419407042925166,4.734543865018918 -7.100316575278529,7.921890368195049 -12.125709556767893,6.035868777886688 c-5.5471223244363514,-2.0959127052870326 -7.460129915241968,-7.912895034695963 -7.816944810705714,-13.349074912643585 c-0.563707565942721,-8.63851860362223 4.299769412563096,-13.924776256585089 9.124266612572875,-20.422405487424857 c2.9234833872029418,-3.9339591836002663 5.583103658432695,-8.806431495605171 4.128858076080462,-13.846816699593012 c-0.7526095694235267,-2.620640492733714 -2.407750933255346,-4.962425646995763 -3.9249638501011805,-7.190269910269389 " stroke-width="0"/>
    <path id="svg_16" fill="#ca8a00" d="m130.57849424562397,96.59338988456625 c0,3.6401116226301244 2.641629604231582,6.5905810103303235 5.897940330900704,6.5905810103303235 c3.2593091711688182,0 5.9039372199000955,-2.9504693877001995 5.9039372199000955,-6.5905810103303235 c0,-3.6371131781304293 -2.6446280487312768,-6.587582565830629 -5.9039372199000955,-6.587582565830629 c-3.256310726669123,0 -5.897940330900704,2.9504693877001995 -5.897940330900704,6.587582565830629 " stroke-width="0"/>
    <path id="svg_17" fill="#ca8a00" d="m145.5707167441006,96.82427011104278 c0,2.110904927785509 1.1933809108787394,3.823016737111539 2.6656171602291443,3.823016737111539 c1.4692378048507093,0 2.6656171602291443,-1.7121118093260306 2.6656171602291443,-3.823016737111539 c0,-2.1079064832858134 -1.1963793553784348,-3.8200182926118442 -2.6656171602291443,-3.8200182926118442 c-1.4722362493504046,0 -2.6656171602291443,1.7121118093260306 -2.6656171602291443,3.8200182926118442 " stroke-width="0"/>
    <path id="svg_18" fill="#ca8a00" d="m151.56760574349124,101.83167242553398 c0,1.5651880288409594 1.0164726853967154,2.8335300522120823 2.2758193752687523,2.8335300522120823 s2.2758193752687523,-1.2683420233711225 2.2758193752687523,-2.8335300522120823 c0,-1.5621895843412643 -1.0164726853967154,-2.8305316077123868 -2.2758193752687523,-2.8305316077123868 s-2.2758193752687523,1.2683420233711225 -2.2758193752687523,2.8305316077123868 " stroke-width="0"/>
    <path id="svg_19" fill="#ca8a00" d="m157.5644947428819,104.8301169252293 c0,1.5651880288409594 1.0164726853967154,2.8335300522120823 2.2758193752687523,2.8335300522120823 s2.2758193752687523,-1.2683420233711225 2.2758193752687523,-2.8335300522120823 s-1.0164726853967154,-2.8305316077123868 -2.2758193752687523,-2.8305316077123868 s-2.2758193752687523,1.2653435788714271 -2.2758193752687523,2.8305316077123868 " stroke-width="0"/>
    <path id="svg_20" fill="#ca8a00" d="m163.56138374227254,110.82700592461995 c0,1.5651880288409594 1.022469574396106,2.8335300522120823 2.278817819768447,2.8335300522120823 c1.2593466898720367,0 2.278817819768447,-1.2683420233711225 2.278817819768447,-2.8335300522120823 s-1.0194711298964108,-2.8305316077123868 -2.278817819768447,-2.8305316077123868 c-1.2563482453723411,0 -2.278817819768447,1.2653435788714271 -2.278817819768447,2.8305316077123868 " stroke-width="0"/>
    <path id="svg_21" fill="#666" d="m39.72862434935536,56.64211537062576 c0.1169393354881177,0.32982889496648593 -0.026986000497257943,0.6866437904302297 -0.32982889496648593,0.8005846814186517 l-3.2623076156685142,1.2083731333772159 c-0.30284289446922785,0.11094244648872705 -0.6566593454332764,-0.06896422349299251 -0.7825940144204799,-0.3897977849603923 l-6.677535900821488,-17.070144536765486 c-0.12893311348689904,-0.32683045046679043 0.029984444996953265,-0.6926406794296203 0.35981333996343906,-0.8155769039171283 l3.5321676206410926,-1.3043233573674664 c0.32683045046679043,-0.11993777998781305 0.6926406794296203,0.04797511199512522 0.8095800149177377,0.37480556246191565 l6.350705450354697,17.19607920575269 " stroke-width="0"/>
    <path id="svg_22" fill="#666" d="m47.86940116602818,48.480349442455065 c0.11394089098842237,0.33282733946618115 -0.05097355649482054,0.6896422349299248 -0.36281178446313433,0.7885909034198707 l-1.9459904803022663,0.6356702339354091 c-0.3088397834686185,0.10194711298964107 -0.6566593454332764,-0.08395644599146912 -0.7735986809213937,-0.41678378545765027 l-4.128858076080462,-11.94880133128587 c-0.11394089098842237,-0.33282733946618115 0.06596577899329718,-0.6926406794296203 0.395794673959783,-0.8005846814186517 l2.050936037791603,-0.6746500124314485 c0.33282733946618115,-0.10494555748933639 0.6926406794296203,0.08095800149177378 0.8035831259183469,0.4107868964582596 l3.9609451840975245,12.00577177678008 " stroke-width="0"/>
    <path id="svg_23" fill="#666" d="m53.47349393595874,45.63782405674391 c0.09595022399025045,0.3358257839658766 -0.08095800149177378,0.6836453459305344 -0.395794673959783,0.7735986809213937 l-1.9669795918001336,0.5547122324436353 c-0.31183822796831384,0.08395644599146912 -0.6476640119341904,-0.09595022399025045 -0.7496111249238313,-0.4347744524558222 l-3.7090758461231177,-12.086729778271854 c-0.10194711298964107,-0.32982889496648593 0.07196266799268781,-0.7046344574284017 0.4107868964582596,-0.794587792419261 l2.080920482788556,-0.5906935664399793 c0.33882422846557186,-0.09595022399025045 0.6866437904302297,0.10494555748933639 0.7855924589201753,0.4407713414552128 l3.544161398639874,12.137703334766675 " stroke-width="0"/>
    <path id="svg_24" fill="#666" d="m62.04604676058764,42.78330489303397 c0.08395644599146912,0.33882422846557186 -0.10494555748933639,0.680646901430839 -0.42577911895673615,0.7556080139232221 c0,0 -0.4917448979500334,0.1169393354881177 -0.9894866848994571,0.23387867097623538 c-0.4917448979500334,0.137928446985985 -0.9834897959000665,0.27885533847166527 -0.9834897959000665,0.27885533847166527 c-0.31483667246800917,0.08995333499085978 -0.6476640119341904,-0.11394089098842237 -0.73761734692505,-0.4557635639536895 l-3.271302949167599,-12.212664447259058 c-0.08995333499085978,-0.3358257839658766 0.10494555748933639,-0.6926406794296203 0.4407713414552128,-0.7855924589201753 c0,0 0.5277262319463772,-0.14692378048507096 1.0434586858939734,-0.29084911647044664 c0.5307246764460728,-0.12893311348689904 1.0554524638927545,-0.2518693379744074 1.0554524638927545,-0.2518693379744074 c0.33882422846557186,-0.08095800149177378 0.6836453459305344,0.1319315579865943 0.7706002364216987,0.4707557864521661 l3.0973931681852704,12.257641114754488 " stroke-width="0"/>
    <path id="svg_25" fill="#666" d="m70.60660580721782,42.897245784022374 c0.07196266799268781,0.3418226729652673 -0.1259346689872037,0.680646901430839 -0.4467682304546035,0.7586064584229173 l-1.9759749252992194,0.4707557864521661 c-0.32982889496648593,0.07496111249238313 -0.6506624564338859,-0.1409268914856803 -0.7316204579256594,-0.4827495644509474 l-2.8245347187129957,-12.323606893747785 c-0.07496111249238313,-0.3418226729652673 0.137928446985985,-0.6866437904302297 0.4767526754515568,-0.7706002364216987 l2.1019095942864228,-0.4947433424497287 c0.3418226729652673,-0.08095800149177378 0.680646901430839,0.1319315579865943 0.7526095694235267,0.4767526754515568 l2.6476264932309723,12.365585116743521 " stroke-width="0"/>
    <path id="svg_26" fill="#666" d="m81.58690956510208,45.63782405674391 c0.053972000994515865,0.3418226729652673 -0.15591911398415695,0.6746500124314485 -0.4677573419524708,0.73761734692505 l-3.397237618154803,0.6506624564338859 c-0.31483667246800917,0.05697044549421118 -0.6236764559366276,-0.17390978098232895 -0.6896422349299248,-0.5187308984472914 l-3.4122298406532794,-18.005659220670424 c-0.06596577899329718,-0.3448211174649625 0.15591911398415695,-0.680646901430839 0.50673712044851,-0.7496111249238313 l3.715072735122508,-0.7046344574284017 c0.33882422846557186,-0.06296733449360185 0.6716515679317528,0.16491444748324297 0.7286220134259641,0.5097355649482053 l3.0164351666934968,18.08062033316281 " stroke-width="0"/>
    <path id="svg_27" fill="#666" d="m87.59279389799178,40.135678399802984 c0.04197822299573455,0.347819561964658 -0.18890200348080555,0.6686531234320576 -0.5097355649482053,0.7136297909274876 l-2.017953148294954,0.2878506719707514 c-0.3238320059670952,0.04797511199512522 -0.6296733449360182,-0.19789733697989154 -0.6776484569311438,-0.5457168989445492 l-1.7780775883193276,-12.51850578622798 c-0.044976667495429896,-0.347819561964658 0.19789733697989154,-0.6716515679317528 0.5397200099451586,-0.7226251244265736 l2.1528831507812436,-0.3058413389689231 c0.3448211174649625,-0.04797511199512522 0.662656234432667,0.19789733697989154 0.7076329019280967,0.542718454444854 l1.5831786958391316,12.548490231224934 " stroke-width="0"/>
    <path id="svg_28" fill="#666" d="m96.09938094362747,37.218191901599425 c0.026986000497257943,0.3508180064643531 -0.20989111497867272,0.6596577899329715 -0.5367215654454632,0.6896422349299248 l-2.02694848179404,0.18590355898111022 c-0.3238320059670952,0.029984444996953265 -0.6176795669372369,-0.23088022647654005 -0.6566593454332764,-0.5786997884411978 l-1.2773373568702084,-12.581473120721583 c-0.03298288949664859,-0.347819561964658 0.2218848929774541,-0.6596577899329715 0.5697044549421117,-0.6896422349299248 l2.1618784842803294,-0.2008957814795868 c0.3508180064643531,-0.03298288949664859 0.6596577899329715,0.22788178197684475 0.6836453459305344,0.5757013439415025 l1.0824384643900125,12.599463787719754 " stroke-width="0"/>
    <path id="svg_29" fill="#666" d="m104.5849788777652,37.28115923609303 c0.014992222498476633,0.3508180064643531 -0.239875559975626,0.6476640119341904 -0.563707565942721,0.6596577899329715 l-2.032945370793431,0.08395644599146912 c-0.32982889496648593,0.011993777998781303 -0.6116826779378464,-0.2608646714734934 -0.6296733449360182,-0.6116826779378464 l-0.7646033474223078,-12.620452899217621 c-0.020989111497867287,-0.3508180064643531 0.2458724489750167,-0.6476640119341904 0.5996888999390649,-0.662656234432667 l2.1768707067788062,-0.08995333499085978 c0.3448211174649625,-0.011993777998781303 0.6476640119341904,0.2608646714734934 0.6656546789323623,0.6086842334381511 l0.5487153434442446,12.632446677216404 " stroke-width="0"/>
    <path id="svg_30" fill="#666" d="m113.06457992290359,37.32913434808816 c0,0.3538164509640485 -0.266861560472884,0.6356702339354091 -0.5906935664399793,0.6296733449360182 l-2.032945370793431,-0.002998444499695327 c-0.32683045046679043,0.014992222498476633 -0.6026873444387604,-0.2608646714734934 -0.6086842334381511,-0.6116826779378464 l-0.24287400447532143,-12.64144201071549 c-0.008995333499085979,-0.3508180064643531 0.27285844947227467,-0.6476640119341904 0.6236764559366276,-0.662656234432667 l2.1738722622791107,0 c0.3508180064643531,0.005996888999390652 0.6416671229347997,0.29684600546983736 0.6416671229347997,0.6476640119341904 l0.0359813339963439,12.64144201071549 " stroke-width="0"/>
    <path id="svg_31" fill="#666" d="m123.19632388737409,43.12512756599921 c-0.014992222498476633,0.3448211174649625 -0.284852227471056,0.6146811224375417 -0.6026873444387604,0.5936920109396746 c0,0 -0.2008957814795868,-0.014992222498476633 -0.5037386759488147,-0.029984444996953265 c-0.32683045046679043,-0.017990666998171957 -0.7706002364216987,-0.0359813339963439 -1.2173684668763018,-0.03298288949664859 c-0.8605535714125583,-0.008995333499085979 -1.7181086983254215,-0.020989111497867287 -1.7181086983254215,-0.020989111497867287 c-0.3238320059670952,-0.002998444499695327 -0.5727028994418072,-0.293847560970142 -0.5697044549421117,-0.6416671229347997 l0.4317760079561268,-18.326492782137827 c0.005996888999390652,-0.347819561964658 0.2998444499695325,-0.6326717894357137 0.6506624564338859,-0.626674900436323 c0,0 0.9475084619037227,0.011993777998781303 1.898015368307141,0.026986000497257943 c0.9535053509031136,-0.005996888999390652 1.898015368307141,0.06896422349299251 1.898015368307141,0.06896422349299251 c0.3538164509640485,0.023987555997562617 0.626674900436323,0.32982889496648593 0.6086842334381511,0.680646901430839 l-0.8755457939110349,18.308502115139653 " stroke-width="0"/>
    <path id="svg_32" fill="#666" d="m130.80637602760083,37.464064350574446 c-0.029984444996953265,0.3508180064643531 -0.32083356146739983,0.6176795669372369 -0.6506624564338859,0.5936920109396746 l-2.02694848179404,-0.1409268914856803 c-0.32683045046679043,-0.020989111497867287 -0.5727028994418072,-0.3238320059670952 -0.5457168989445492,-0.6776484569311438 l0.9385131284046367,-12.605460676719144 c0.023987555997562617,-0.3508180064643531 0.32982889496648593,-0.6146811224375417 0.680646901430839,-0.5906935664399793 l2.1768707067788062,0.14992222498476626 c0.347819561964658,0.023987555997562617 0.6056857889384556,0.33282733946618115 0.5757013439415025,0.680646901430839 l-1.1484042433833095,12.590468454220668 " stroke-width="0"/>
    <path id="svg_33" fill="#666" d="m139.7807204151889,40.55845907426003 c-0.044976667495429896,0.347819561964658 -0.347819561964658,0.5996888999390649 -0.6716515679317528,0.5577106769433307 l-2.014954703795259,-0.25486778247410274 c-0.3238320059670952,-0.04197822299573455 -0.5517137879439398,-0.35981333996343906 -0.5157324539475959,-0.7106313464277921 l1.4752346938501,-12.55148867572463 c0.04197822299573455,-0.3508180064643531 0.3538164509640485,-0.5996888999390649 0.7076329019280967,-0.5547122324436353 l2.164876928780025,0.27285844947227467 c0.3448211174649625,0.04197822299573455 0.5876951219402837,0.36281178446313433 0.5397200099451586,0.7106313464277921 l-1.6851258088287728,12.530499564226764 " stroke-width="0"/>
    <path id="svg_34" fill="#666" d="m148.76106169177643,40.639417075751794 c-0.06596577899329718,0.347819561964658 -0.3808024514613063,0.5786997884411978 -0.7046344574284017,0.5187308984472914 l-1.9939655922973913,-0.37480556246191565 c-0.32083356146739983,-0.06296733449360185 -0.5367215654454632,-0.39279622946008763 -0.4827495644509474,-0.73761734692505 l2.0209515927946495,-12.482524452231639 c0.05697044549421118,-0.3448211174649625 0.38380089596100175,-0.5786997884411978 0.7316204579256594,-0.5127340094479005 l2.1378909282827667,0.3987931184594783 c0.3448211174649625,0.06596577899329718 0.5786997884411978,0.40179156295917356 0.5157324539475959,0.7436142359244406 l-2.2248458187739315,12.446543118235292 " stroke-width="0"/>
    <path id="svg_35" fill="#666" d="m154.74895535766802,43.586888018952294 c-0.08095800149177378,0.3418226729652673 -0.3987931184594783,0.5577106769433307 -0.7166282354271829,0.4767526754515568 l-1.9939655922973913,-0.3897977849603923 c-0.32083356146739983,-0.06296733449360185 -0.5277262319463772,-0.3897977849603923 -0.4557635639536895,-0.7346189024253548 l2.545679380241331,-12.386574228241388 c0.06896422349299251,-0.3418226729652673 0.4107868964582596,-0.5697044549421117 0.7556080139232221,-0.50673712044851 l2.1378909282827667,0.4227806744570409 c0.3358257839658766,0.08695489049116445 0.5517137879439398,0.4377728969555175 0.47975111995125214,0.7765971254210892 l-2.7525720507203078,12.341597560745956 " stroke-width="0"/>
    <path id="svg_36" fill="#666" d="m165.0606059921202,49.412865681860325 c-0.08695489049116445,0.3358257839658766 -0.41678378545765027,0.5517137879439398 -0.7286220134259641,0.4737542309518614 l-3.340267172660592,-0.830569126415605 c-0.31483667246800917,-0.08095800149177378 -0.4917448979500334,-0.4227806744570409 -0.4077884519585643,-0.7586064584229173 l4.461685415546643,-17.777777438693583 c0.08995333499085978,-0.33882422846557186 0.4377728969555175,-0.5487153434442446 0.7735986809213937,-0.4647588974527755 l3.6910851791249453,0.9265193504058555 c0.3358257839658766,0.08395644599146912 0.542718454444854,0.4317760079561268 0.4497666749542989,0.7676017919220033 l-4.899458312502161,17.66383654770516 " stroke-width="0"/>
    <path id="svg_37" fill="#666" d="m172.670658132347,46.5493511846513 c-0.10494555748933639,0.33282733946618115 -0.4497666749542989,0.5277262319463772 -0.7616049029226126,0.42877756345643153 l-1.9399935913028756,-0.6116826779378464 c-0.31483667246800917,-0.10194711298964107 -0.4827495644509474,-0.45276511945399406 -0.3808024514613063,-0.7885909034198707 l3.6910851791249453,-12.092726667271245 c0.09894866848994575,-0.3358257839658766 0.4587620084533847,-0.5247277874466819 0.794587792419261,-0.4197822299573456 l2.080920482788556,0.6566593454332764 c0.32982889496648593,0.10194711298964107 0.5127340094479005,0.4647588974527755 0.4047900074588689,0.794587792419261 l-3.8889825161048366,12.032757777277338 " stroke-width="0"/>
    <path id="svg_38" fill="#666" d="m181.61201963043845,49.53880035084754 c-0.12293622448750838,0.32683045046679043 -0.4737542309518614,0.5007402314491196 -0.7735986809213937,0.38380089596100175 l-1.9040122573065317,-0.7316204579256594 c-0.30284289446922785,-0.1169393354881177 -0.4587620084533847,-0.47975111995125214 -0.33882422846557186,-0.8125784594174331 l4.188826966074369,-11.927812219788 c0.1169393354881177,-0.32982889496648593 0.47975111995125214,-0.5007402314491196 0.8035831259183469,-0.37480556246191565 l2.02694848179404,0.7765971254210892 c0.3358257839658766,0.1259346689872037 0.49774178694942406,0.49774178694942406 0.37480556246191565,0.8215737929165191 l-4.377728969555174,11.8648448852944 " stroke-width="0"/>
    <path id="svg_39" fill="#666" d="m190.61634846302348,52.34534440256235 c-0.12893311348689904,0.3238320059670952 -0.48874645345033796,0.4917448979500334 -0.8035831259183469,0.37480556246191565 l-1.8950169238074457,-0.7286220134259641 c-0.3088397834686185,-0.1169393354881177 -0.4497666749542989,-0.4767526754515568 -0.3238320059670952,-0.8035831259183469 l4.677573419524707,-11.750903994305977 c0.1319315579865943,-0.3238320059670952 0.5037386759488147,-0.48874645345033796 0.8275706819159095,-0.36281178446313433 l2.032945370793431,0.7825940144204799 c0.32683045046679043,0.12293622448750838 0.47975111995125214,0.4947433424497287 0.347819561964658,0.8155769039171283 l-4.863476978505817,11.6729444373139 " stroke-width="0"/>
    <path id="svg_40" fill="#666" d="m196.55326857242022,55.30480912376163 c-0.14692378048507096,0.32083356146739983 -0.5097355649482053,0.4647588974527755 -0.8125784594174331,0.33282733946618115 l-1.853038700811711,-0.8455613489140815 c-0.29684600546983736,-0.13493000248628967 -0.4227806744570409,-0.50673712044851 -0.284852227471056,-0.830569126415605 l5.130338538978701,-11.556005101825782 c0.14392533598537566,-0.32083356146739983 0.5217293429469866,-0.4647588974527755 0.8425629044143863,-0.3178351169677045 l-1.1873840218793488,9.244204392560686 l-1.835048033813539,3.972938962096306 " stroke-width="0"/>
    <path id="svg_41" fill="#7797B0" d="m28.631381255982944,37.12823856660857 c7.322201468255984,-2.7435767172212224 14.500477600526592,-5.043383648487537 21.474859506817914,-6.9623881282925435 c-7.025355462786146,1.9399935913028756 -14.194636261557667,4.24579741156858 -21.474859506817914,6.9623881282925435 m50.70669493434764,-13.19315579865943 c14.41052426553573,-2.1978598182766733 27.237869835232328,-2.893498942205989 37.717433361667496,-2.893498942205989 c12.887314459690506,0 22.215475298242662,1.0524540193930592 26.53923226680332,1.6641366973309055 c-8.431625933143254,-0.9505069064034183 -17.61885988020973,-1.5412004728433972 -27.435767172212223,-1.5412004728433972 c-11.469050211334618,0 -23.80764932758088,0.8035831259183469 -36.82089845625859,2.77056271771848 " stroke-width="0"/>
    <path id="svg_42" fill="#F0F0F0" d="m37.31187808260094,89.9608306512402 l-8.680496826617965,-52.95552830911914 c7.280223245260248,-2.7165907167239642 14.44950404403177,-5.02239453698967 21.474859506817914,-6.9623881282925435 c10.251681744458315,-2.8245347187129957 20.062592147461416,-4.830494089009169 29.231835427529724,-6.230767670366885 c13.013249128677709,-1.9669795918001336 25.35184824492397,-2.77056271771848 36.82089845625859,-2.77056271771848 c9.816907292002494,0 19.004141239068968,0.5906935664399793 27.435767172212223,1.5412004728433972 c1.7600869213211559,0.248870893474712 2.692603160726402,0.42577911895673615 2.692603160726402,0.42577911895673615 c-1.4242611373552794,0.662656234432667 -2.8845036087069027,1.3642922473613728 -4.371732080555783,2.0959127052870326 c-0.08395644599146912,-0.20389422597928214 -0.26986000497257934,-0.3568148954637439 -0.5007402314491196,-0.38679934046069686 l-2.164876928780025,-0.27285844947227467 c-0.026986000497257943,-0.005996888999390652 -0.053972000994515865,-0.005996888999390652 -0.08095800149177378,-0.005996888999390652 c-0.32083356146739983,0 -0.5876951219402837,0.2368771154759307 -0.626674900436323,0.560709121443026 l-0.22488333747714945,1.9100091463059223 c-1.8260527003144529,0.9325162394052461 -3.69408362362464,1.9070107018062268 -5.589100547432086,2.917486498203551 l0.4947433424497287,-5.427184544448538 c0.029984444996953265,-0.347819561964658 -0.22788178197684475,-0.6566593454332764 -0.5757013439415025,-0.680646901430839 l-2.1768707067788062,-0.14992222498476626 c-0.014992222498476633,-0.002998444499695327 -0.029984444996953265,-0.002998444499695327 -0.04197822299573455,-0.002998444499695327 c-0.33282733946618115,0 -0.6146811224375417,0.257866226973798 -0.6386686784351044,0.5936920109396746 l-0.563707565942721,7.556080139232218 c-1.7840744773187187,0.9774929069006759 -3.589138066135304,1.9759749252992194 -5.415190766449757,3.0044413886947154 l0.5217293429469866,-10.935327090388851 c0.017990666998171957,-0.3508180064643531 -0.25486778247410274,-0.6566593454332764 -0.6086842334381511,-0.680646901430839 c0,0 -0.8755457939110349,-0.06896422349299251 -1.7900713663181094,-0.06896422349299251 l-0.10794400198903172,0 c-0.9505069064034183,-0.014992222498476633 -1.898015368307141,-0.026986000497257943 -1.898015368307141,-0.026986000497257943 l-0.008995333499085979,0 c-0.3448211174649625,0 -0.6356702339354091,0.28185378297136066 -0.6416671229347997,0.626674900436323 l-0.32683045046679043,13.849815144092705 c-38.1612031476224,21.960607515768558 -81.6386483932046,52.475777189167886 -81.6386483932046,52.475777189167886 m-3.0044413886947154,-52.0769840707084 c-0.07196266799268781,0 -0.14692378048507096,0.011993777998781303 -0.2158880039780634,0.03897977849603923 l-3.5321676206410926,1.3043233573674664 c-0.32982889496648593,0.12293622448750838 -0.48874645345033796,0.48874645345033796 -0.35981333996343906,0.8155769039171283 l6.677535900821488,17.070144536765486 c0.10194711298964107,0.257866226973798 0.347819561964658,0.4227806744570409 0.5966904554393698,0.4227806744570409 c0.06296733449360185,0 0.1259346689872037,-0.011993777998781303 0.18590355898111022,-0.03298288949664859 l3.2623076156685142,-1.2083731333772159 c0.30284289446922785,-0.11394089098842237 0.4467682304546035,-0.4707557864521661 0.32982889496648593,-0.8005846814186517 l-6.350705450354697,-17.19607920575269 c-0.08995333499085978,-0.25486778247410274 -0.3358257839658766,-0.4137853409579549 -0.5936920109396746,-0.4137853409579549 m8.323681931154221,-2.9384756097014177 c-0.06296733449360185,0 -0.12893311348689904,0.008995333499085979 -0.19190044798050088,0.029984444996953265 l-2.050936037791603,0.6746500124314485 c-0.32982889496648593,0.10794400198903172 -0.5097355649482053,0.4677573419524708 -0.395794673959783,0.8005846814186517 l4.128858076080462,11.94880133128587 c0.09595022399025045,0.26986000497257934 0.3418226729652673,0.44376978595490824 0.5996888999390649,0.44376978595490824 c0.05697044549421118,0 0.1169393354881177,-0.008995333499085979 0.17390978098232895,-0.026986000497257943 l1.9459904803022663,-0.6356702339354091 c0.31183822796831384,-0.09894866848994575 0.4767526754515568,-0.4557635639536895 0.36281178446313433,-0.7885909034198707 l-3.9609451840975245,-12.00577177678008 c-0.08995333499085978,-0.266861560472884 -0.3418226729652673,-0.4407713414552128 -0.6116826779378464,-0.4407713414552128 m8.320683486654525,-2.617642048234019 c-0.05697044549421118,0 -0.11394089098842237,0.008995333499085979 -0.1709113364826336,0.023987555997562617 l-2.080920482788556,0.5906935664399793 c-0.33882422846557186,0.08995333499085978 -0.5127340094479005,0.4647588974527755 -0.4107868964582596,0.794587792419261 l3.7090758461231177,12.086729778271854 c0.08695489049116445,0.284852227471056 0.3358257839658766,0.4557635639536895 0.5966904554393698,0.4557635639536895 c0.05097355649482054,0 0.10194711298964107,-0.005996888999390652 0.15292066948446165,-0.020989111497867287 l1.9669795918001336,-0.5547122324436353 c0.31483667246800917,-0.08995333499085978 0.4917448979500334,-0.4377728969555175 0.395794673959783,-0.7735986809213937 l-3.544161398639874,-12.137703334766675 c-0.08395644599146912,-0.27885533847166527 -0.3358257839658766,-0.4647588974527755 -0.6146811224375417,-0.4647588974527755 m27.21088383473507,-6.341710116855612 c-0.03897977849603923,0 -0.07496111249238313,0.005996888999390652 -0.11394089098842237,0.011993777998781303 l-3.715072735122508,0.7046344574284017 c-0.3508180064643531,0.06896422349299251 -0.5727028994418072,0.4047900074588689 -0.50673712044851,0.7496111249238313 l3.4122298406532794,18.005659220670424 c0.05697044549421118,0.3088397834686185 0.31483667246800917,0.5277262319463772 0.5906935664399793,0.5277262319463772 c0.03298288949664859,0 0.06596577899329718,-0.002998444499695327 0.09894866848994575,-0.008995333499085979 l3.397237618154803,-0.6506624564338859 c0.31183822796831384,-0.06296733449360185 0.5217293429469866,-0.395794673959783 0.4677573419524708,-0.73761734692505 l-3.0164351666934968,-18.08062033316281 c-0.05097355649482054,-0.3058413389689231 -0.3178351169677045,-0.5217293429469866 -0.6146811224375417,-0.5217293429469866 m-18.692303011100655,3.984932740095087 c-0.04797511199512522,0 -0.09894866848994575,0.005996888999390652 -0.14692378048507096,0.017990666998171957 c0,0 -0.5247277874466819,0.12293622448750838 -1.0554524638927545,0.2518693379744074 c-0.5157324539475959,0.14392533598537566 -1.0434586858939734,0.29084911647044664 -1.0434586858939734,0.29084911647044664 c-0.3358257839658766,0.09295177949055512 -0.5307246764460728,0.4497666749542989 -0.4407713414552128,0.7855924589201753 l3.271302949167599,12.212664447259058 c0.07496111249238313,0.284852227471056 0.3238320059670952,0.4767526754515568 0.5846966774405887,0.4767526754515568 c0.05097355649482054,0 0.10194711298964107,-0.008995333499085979 0.15292066948446165,-0.020989111497867287 c0,0 0.4917448979500334,-0.1409268914856803 0.9834897959000665,-0.27885533847166527 c0.49774178694942406,-0.1169393354881177 0.9894866848994571,-0.23387867097623538 0.9894866848994571,-0.23387867097623538 c0.32083356146739983,-0.07496111249238313 0.5097355649482053,-0.41678378545765027 0.42577911895673615,-0.7556080139232221 l-3.0973931681852704,-12.257641114754488 c-0.07496111249238313,-0.29084911647044664 -0.3358257839658766,-0.48874645345033796 -0.6236764559366276,-0.48874645345033796 m8.395644599146909,-1.9939655922973913 c-0.044976667495429896,0 -0.09595022399025045,0.005996888999390652 -0.14392533598537566,0.017990666998171957 l-2.1019095942864228,0.4947433424497287 c-0.33882422846557186,0.08395644599146912 -0.5517137879439398,0.42877756345643153 -0.4767526754515568,0.7706002364216987 l2.8245347187129957,12.323606893747785 c0.06896422349299251,0.29684600546983736 0.32083356146739983,0.49774178694942406 0.5996888999390649,0.49774178694942406 c0.04197822299573455,0 0.08695489049116445,-0.005996888999390652 0.1319315579865943,-0.014992222498476633 l1.9759749252992194,-0.4707557864521661 c0.32083356146739983,-0.07795955699207845 0.5187308984472914,-0.41678378545765027 0.4467682304546035,-0.7586064584229173 l-2.6476264932309723,-12.365585116743521 c-0.06296733449360185,-0.29684600546983736 -0.32083356146739983,-0.4947433424497287 -0.6086842334381511,-0.4947433424497287 m19.082100796061045,-3.271302949167599 c-0.026986000497257943,0 -0.05697044549421118,0.002998444499695327 -0.08695489049116445,0.005996888999390652 l-2.1528831507812436,0.3058413389689231 c-0.3418226729652673,0.05097355649482054 -0.5846966774405887,0.37480556246191565 -0.5397200099451586,0.7226251244265736 l1.7780775883193276,12.51850578622798 c0.044976667495429896,0.32083356146739983 0.3058413389689231,0.5517137879439398 0.5996888999390649,0.5517137879439398 c0.023987555997562617,0 0.05097355649482054,-0.002998444499695327 0.07795955699207845,-0.005996888999390652 l2.017953148294954,-0.2878506719707514 c0.32083356146739983,-0.044976667495429896 0.5517137879439398,-0.3658102289628298 0.5097355649482053,-0.7136297909274876 l-1.5831786958391316,-12.548490231224934 c-0.04197822299573455,-0.31483667246800917 -0.3088397834686185,-0.5487153434442446 -0.6206780114369324,-0.5487153434442446 m8.713479716114614,-0.9265193504058555 c-0.020989111497867287,0 -0.03897977849603923,0 -0.059968889993906524,0.002998444499695327 l-2.1618784842803294,0.2008957814795868 c-0.347819561964658,0.029984444996953265 -0.6026873444387604,0.3418226729652673 -0.5697044549421117,0.6896422349299248 l1.2773373568702084,12.581473120721583 c0.0359813339963439,0.32982889496648593 0.30284289446922785,0.5816982329408934 0.6026873444387604,0.5816982329408934 c0.017990666998171957,0 0.0359813339963439,-0.002998444499695327 0.053972000994515865,-0.002998444499695327 l2.02694848179404,-0.18590355898111022 c0.32683045046679043,-0.029984444996953265 0.563707565942721,-0.33882422846557186 0.5367215654454632,-0.6896422349299248 l-1.0824384643900125,-12.599463787719754 c-0.023987555997562617,-0.32982889496648593 -0.29684600546983736,-0.5786997884411978 -0.6236764559366276,-0.5786997884411978 m8.854406607600295,-0.5996888999390649 l-0.020989111497867287,0 l-2.1768707067788062,0.08995333499085978 c-0.3538164509640485,0.014992222498476633 -0.6206780114369324,0.31183822796831384 -0.5996888999390649,0.662656234432667 l0.7646033474223078,12.620452899217621 c0.017990666998171957,0.3418226729652673 0.284852227471056,0.6116826779378464 0.6056857889384556,0.6116826779378464 l0.023987555997562617,0 l2.032945370793431,-0.08395644599146912 c0.3238320059670952,-0.011993777998781303 0.5786997884411978,-0.3088397834686185 0.563707565942721,-0.6596577899329715 l-0.5487153434442446,-12.632446677216404 c-0.017990666998171957,-0.3418226729652673 -0.3088397834686185,-0.6086842334381511 -0.6446655674344951,-0.6086842334381511 m6.701523456819051,13.65491625161251 l2.032945370793431,0.002998444499695327 l0.008995333499085979,0 c0.32083356146739983,0 0.5816982329408934,-0.28185378297136066 0.5816982329408934,-0.6296733449360182 l-0.0359813339963439,-12.64144201071549 c0,-0.3508180064643531 -0.29084911647044664,-0.6416671229347997 -0.6416671229347997,-0.6476640119341904 l-2.1738722622791107,0 c-0.3508180064643531,0.014992222498476633 -0.6326717894357137,0.31183822796831384 -0.6236764559366276,0.662656234432667 l0.24287400447532143,12.64144201071549 c0.005996888999390652,0.3448211174649625 0.26986000497257934,0.6116826779378464 0.5876951219402837,0.6116826779378464 l0.020989111497867287,0 " stroke-width="0"/>
    <path stroke="null" id="svg_43" fill="#A3A3A3" d="m35.95058427973922,58.68405607491826 c-0.248870893474712,0 -0.4947433424497287,-0.16491444748324297 -0.5966904554393698,-0.4227806744570409 l-6.677535900821488,-17.070144536765486 c-0.12893311348689904,-0.32683045046679043 0.029984444996953265,-0.6926406794296203 0.35981333996343906,-0.8155769039171283 l3.5321676206410926,-1.3043233573674664 c0.06896422349299251,-0.026986000497257943 0.14392533598537566,-0.03897977849603923 0.2158880039780634,-0.03897977849603923 c0.257866226973798,0 0.5037386759488147,0.15891755848385228 0.5936920109396746,0.4137853409579549 l6.350705450354697,17.19607920575269 c0.1169393354881177,0.32982889496648593 -0.026986000497257943,0.6866437904302297 -0.32982889496648593,0.8005846814186517 l-3.2623076156685142,1.2083731333772159 c-0.059968889993906524,0.020989111497867287 -0.12293622448750838,0.03298288949664859 -0.18590355898111022,0.03298288949664859 " stroke-width="0"/>
    <path id="svg_44" fill="#A3A3A3" d="m45.38668912028044,49.93159658030763 c-0.257866226973798,0 -0.5037386759488147,-0.17390978098232895 -0.5996888999390649,-0.44376978595490824 l-4.128858076080462,-11.94880133128587 c-0.11394089098842237,-0.33282733946618115 0.06596577899329718,-0.6926406794296203 0.395794673959783,-0.8005846814186517 l2.050936037791603,-0.6746500124314485 c0.06296733449360185,-0.020989111497867287 0.12893311348689904,-0.029984444996953265 0.19190044798050088,-0.029984444996953265 c0.26986000497257934,0 0.5217293429469866,0.17390978098232895 0.6116826779378464,0.4407713414552128 l3.9609451840975245,12.00577177678008 c0.11394089098842237,0.33282733946618115 -0.05097355649482054,0.6896422349299248 -0.36281178446313433,0.7885909034198707 l-1.9459904803022663,0.6356702339354091 c-0.05697044549421118,0.017990666998171957 -0.1169393354881177,0.026986000497257943 -0.17390978098232895,0.026986000497257943 " stroke-width="0"/>
    <path id="svg_45" fill="#A3A3A3" d="m50.957799000714346,46.987124081606794 c-0.2608646714734934,0 -0.5097355649482053,-0.1709113364826336 -0.5966904554393698,-0.4557635639536895 l-3.7090758461231177,-12.086729778271854 c-0.10194711298964107,-0.32982889496648593 0.07196266799268781,-0.7046344574284017 0.4107868964582596,-0.794587792419261 l2.080920482788556,-0.5906935664399793 c0.05697044549421118,-0.014992222498476633 0.11394089098842237,-0.023987555997562617 0.1709113364826336,-0.023987555997562617 c0.27885533847166527,0 0.5307246764460728,0.18590355898111022 0.6146811224375417,0.4647588974527755 l3.544161398639874,12.137703334766675 c0.09595022399025045,0.3358257839658766 -0.08095800149177378,0.6836453459305344 -0.395794673959783,0.7735986809213937 l-1.9669795918001336,0.5547122324436353 c-0.05097355649482054,0.014992222498476633 -0.10194711298964107,0.020989111497867287 -0.15292066948446165,0.020989111497867287 " stroke-width="0"/>
    <path id="svg_46" fill="#A3A3A3" d="m59.49437049134693,44.072636027902945 c-0.2608646714734934,0 -0.5097355649482053,-0.19190044798050088 -0.5846966774405887,-0.4767526754515568 l-3.271302949167599,-12.212664447259058 c-0.08995333499085978,-0.3358257839658766 0.10494555748933639,-0.6926406794296203 0.4407713414552128,-0.7855924589201753 c0,0 0.5277262319463772,-0.14692378048507096 1.0434586858939734,-0.29084911647044664 c0.5307246764460728,-0.12893311348689904 1.0554524638927545,-0.2518693379744074 1.0554524638927545,-0.2518693379744074 c0.04797511199512522,-0.011993777998781303 0.09894866848994575,-0.017990666998171957 0.14692378048507096,-0.017990666998171957 c0.2878506719707514,0 0.5487153434442446,0.19789733697989154 0.6236764559366276,0.48874645345033796 l3.0973931681852704,12.257641114754488 c0.08395644599146912,0.33882422846557186 -0.10494555748933639,0.680646901430839 -0.42577911895673615,0.7556080139232221 c0,0 -0.4917448979500334,0.1169393354881177 -0.9894866848994571,0.23387867097623538 c-0.4917448979500334,0.137928446985985 -0.9834897959000665,0.27885533847166527 -0.9834897959000665,0.27885533847166527 c-0.05097355649482054,0.011993777998781303 -0.10194711298964107,0.020989111497867287 -0.15292066948446165,0.020989111497867287 " stroke-width="0"/>
    <path id="svg_47" fill="#A3A3A3" d="m68.05193109347738,44.14160025139594 c-0.27885533847166527,0 -0.5307246764460728,-0.2008957814795868 -0.5996888999390649,-0.49774178694942406 l-2.8245347187129957,-12.323606893747785 c-0.07496111249238313,-0.3418226729652673 0.137928446985985,-0.6866437904302297 0.4767526754515568,-0.7706002364216987 l2.1019095942864228,-0.4947433424497287 c0.04797511199512522,-0.011993777998781303 0.09894866848994575,-0.017990666998171957 0.14392533598537566,-0.017990666998171957 c0.2878506719707514,0 0.5457168989445492,0.19789733697989154 0.6086842334381511,0.4947433424497287 l2.6476264932309723,12.365585116743521 c0.07196266799268781,0.3418226729652673 -0.1259346689872037,0.680646901430839 -0.4467682304546035,0.7586064584229173 l-1.9759749252992194,0.4707557864521661 c-0.044976667495429896,0.008995333499085979 -0.08995333499085978,0.014992222498476633 -0.1319315579865943,0.014992222498476633 " stroke-width="0"/>
    <path id="svg_48" fill="#A3A3A3" d="m77.62296593650484,47.03809763810162 c-0.27585689397197005,0 -0.5337231209457678,-0.21888644847775876 -0.5906935664399793,-0.5277262319463772 l-3.4122298406532794,-18.005659220670424 c-0.06596577899329718,-0.3448211174649625 0.15591911398415695,-0.680646901430839 0.50673712044851,-0.7496111249238313 l3.715072735122508,-0.7046344574284017 c0.03897977849603923,-0.005996888999390652 0.07496111249238313,-0.011993777998781303 0.11394089098842237,-0.011993777998781303 c0.29684600546983736,0 0.563707565942721,0.2158880039780634 0.6146811224375417,0.5217293429469866 l3.0164351666934968,18.08062033316281 c0.053972000994515865,0.3418226729652673 -0.15591911398415695,0.6746500124314485 -0.4677573419524708,0.73761734692505 l-3.397237618154803,0.6506624564338859 c-0.03298288949664859,0.005996888999390652 -0.06596577899329718,0.008995333499085979 -0.09894866848994575,0.008995333499085979 " stroke-width="0"/>
    <path id="svg_49" fill="#A3A3A3" d="m84.98714562775655,41.14315575170062 c-0.293847560970142,0 -0.5547122324436353,-0.23088022647654005 -0.5996888999390649,-0.5517137879439398 l-1.7780775883193276,-12.51850578622798 c-0.044976667495429896,-0.347819561964658 0.19789733697989154,-0.6716515679317528 0.5397200099451586,-0.7226251244265736 l2.1528831507812436,-0.3058413389689231 c0.029984444996953265,-0.002998444499695327 0.059968889993906524,-0.005996888999390652 0.08695489049116445,-0.005996888999390652 c0.31183822796831384,0 0.5786997884411978,0.23387867097623538 0.6206780114369324,0.5487153434442446 l1.5831786958391316,12.548490231224934 c0.04197822299573455,0.347819561964658 -0.18890200348080555,0.6686531234320576 -0.5097355649482053,0.7136297909274876 l-2.017953148294954,0.2878506719707514 c-0.026986000497257943,0.002998444499695327 -0.053972000994515865,0.005996888999390652 -0.07795955699207845,0.005996888999390652 " stroke-width="0"/>
    <path id="svg_50" fill="#A3A3A3" d="m93.48173889539339,38.09673614001015 c-0.2998444499695325,0 -0.5667060104424165,-0.2518693379744074 -0.6026873444387604,-0.5816982329408934 l-1.2773373568702084,-12.581473120721583 c-0.03298288949664859,-0.347819561964658 0.2218848929774541,-0.6596577899329715 0.5697044549421117,-0.6896422349299248 l2.1618784842803294,-0.2008957814795868 c0.020989111497867287,-0.002998444499695327 0.03897977849603923,-0.002998444499695327 0.059968889993906524,-0.002998444499695327 c0.32683045046679043,0 0.5996888999390649,0.248870893474712 0.6236764559366276,0.5786997884411978 l1.0824384643900125,12.599463787719754 c0.026986000497257943,0.3508180064643531 -0.20989111497867272,0.6596577899329715 -0.5367215654454632,0.6896422349299248 l-2.02694848179404,0.18590355898111022 c-0.017990666998171957,0 -0.0359813339963439,0.002998444499695327 -0.053972000994515865,0.002998444499695327 " stroke-width="0"/>
    <path id="svg_51" fill="#A3A3A3" d="m101.96433838503151,38.02477347201747 c-0.32083356146739983,0 -0.5876951219402837,-0.26986000497257934 -0.6056857889384556,-0.6116826779378464 l-0.7646033474223078,-12.620452899217621 c-0.020989111497867287,-0.3508180064643531 0.2458724489750167,-0.6476640119341904 0.5996888999390649,-0.662656234432667 l2.1768707067788062,-0.08995333499085978 l0.020989111497867287,0 c0.3358257839658766,0 0.626674900436323,0.266861560472884 0.6446655674344951,0.6086842334381511 l0.5487153434442446,12.632446677216404 c0.014992222498476633,0.3508180064643531 -0.239875559975626,0.6476640119341904 -0.563707565942721,0.6596577899329715 l-2.032945370793431,0.08395644599146912 l-0.023987555997562617,0 " stroke-width="0"/>
    <path id="svg_52" fill="#A3A3A3" d="m112.48288168996271,37.95880769302417 l-0.008995333499085979,0 l-2.032945370793431,-0.002998444499695327 l-0.020989111497867287,0 c-0.3178351169677045,0 -0.5816982329408934,-0.266861560472884 -0.5876951219402837,-0.6116826779378464 l-0.24287400447532143,-12.64144201071549 c-0.008995333499085979,-0.3508180064643531 0.27285844947227467,-0.6476640119341904 0.6236764559366276,-0.662656234432667 l2.1738722622791107,0 c0.3508180064643531,0.005996888999390652 0.6416671229347997,0.29684600546983736 0.6416671229347997,0.6476640119341904 l0.0359813339963439,12.64144201071549 c0,0.347819561964658 -0.2608646714734934,0.6296733449360182 -0.5816982329408934,0.6296733449360182 " stroke-width="0"/>
    <path id="svg_53" fill="#A3A3A3" d="m118.58471624684267,38.5165183699675 l0.32683045046679043,-13.849815144092705 c0.005996888999390652,-0.3448211174649625 0.29684600546983736,-0.626674900436323 0.6416671229347997,-0.626674900436323 l0.008995333499085979,0 s0.9475084619037227,0.011993777998781303 1.898015368307141,0.026986000497257943 l0.10794400198903172,0 c0.9145255724070743,0 1.7900713663181094,0.06896422349299251 1.7900713663181094,0.06896422349299251 c0.3538164509640485,0.023987555997562617 0.626674900436323,0.32982889496648593 0.6086842334381511,0.680646901430839 l-0.5217293429469866,10.935327090388851 c-1.6071662518366943,0.9025317944082929 -3.2293247261718645,1.8260527003144529 -4.860478534006122,2.7645658287190895 " stroke-width="0"/>
    <path id="svg_54" fill="#A3A3A3" d="m127.58004974592865,32.18980047561037 l0.563707565942721,-7.556080139232218 c0.023987555997562617,-0.3358257839658766 0.3058413389689231,-0.5936920109396746 0.6386686784351044,-0.5936920109396746 c0.011993777998781303,0 0.026986000497257943,0 0.04197822299573455,0.002998444499695327 l2.1768707067788062,0.14992222498476626 c0.347819561964658,0.023987555997562617 0.6056857889384556,0.33282733946618115 0.5757013439415025,0.680646901430839 l-0.4947433424497287,5.427184544448538 c-1.1544011323827001,0.6176795669372369 -2.3237944872638767,1.2473529118732551 -3.5021831756441397,1.889020034808055 " stroke-width="0"/>
    <path id="svg_55" fill="#A3A3A3" d="m136.57538324501462,29.50919109288276 l0.22488333747714945,-1.9100091463059223 c0.03897977849603923,-0.3238320059670952 0.3058413389689231,-0.560709121443026 0.626674900436323,-0.560709121443026 c0.026986000497257943,0 0.053972000994515865,0 0.08095800149177378,0.005996888999390652 l2.164876928780025,0.27285844947227467 c0.23088022647654005,0.029984444996953265 0.41678378545765027,0.18290511448141492 0.5007402314491196,0.38679934046069686 c-1.1813871328799581,0.5816982329408934 -2.380764932758088,1.1843855773796534 -3.5981333996343903,1.8050635888165858 " stroke-width="0"/>
   </g>
  </g>
 </g></g></svg>