<?xml version="1.0" encoding="UTF-8"?>
<svg version="1.1" viewBox="0 0 77 76" xmlns="http://www.w3.org/2000/svg">
<g fill-rule="evenodd">
<path d="m38.501 3c-11.492 0-29.542 2.836-33.695 9.14-0.656 0.997-1.381 2.669-0.095 5.664l0.103 0.246 0.07 0.258c4.565 17.19 12.178 45.056 13.996 49.754 1.131 0.748 5.459 3.019 16.184 3.019 1.041 0 2.138-0.021 3.294-0.069h0.593c13.047 0 17.937-2.257 19.189-2.997 1.851-4.836 9.429-32.572 13.98-49.707l0.068-0.258 0.105-0.246c1.293-3.012 0.567-4.691-0.094-5.692-4.141-6.285-22.198-9.112-33.698-9.112" fill="#1C517C"/>
<path d="m71.953 18.458l-0.105 0.246-0.068 0.258c-4.551 17.135-12.129 44.871-13.98 49.707-1.252 0.74-6.142 2.997-19.189 2.997h-0.593c-1.156 0.048-2.253 0.069-3.294 0.069-10.725 0-15.053-2.271-16.184-3.019-1.818-4.698-9.431-32.564-13.997-49.754l-0.069-0.258-0.103-0.246c-1.287-2.995-0.561-4.667 0.095-5.664 4.153-6.304 22.203-9.14 33.695-9.14 11.5 0 29.557 2.827 33.698 9.112 0.661 1.001 1.387 2.68 0.094 5.692zm-33.792-18.458c-9.133 0-44.557 2.645-37.15 19.899 0 0 13.323 50.167 14.615 51.156 0 0 4.468 4.976 22.535 4.264 18.674 0.071 22.535-4.264 22.535-4.264 1.293-0.989 14.614-51.156 14.614-51.156 7.408-17.254-27.809-19.899-37.149-19.899z" fill="#B3B3B3"/>
<path d="m12.895 29.985s26.761-10.847 51.769 0l2.893-17.661s-25.452-11.978-57.557 0l2.895 17.661" fill="#E6E6E6"/>
<path d="m36 25.313l1.926-10.292c0.252-1.361 0.671-1.361 0.924 0l1.903 10.181-4.753 0.111" fill="#C1272D"/>
<path d="m30.04 45.712c1.273-1.867 3.476-3.494 3.766-5.354 0.433-2.794-1.771-4.562-2.874-4.998-2.674-1.056-6.998 0.3-8.299 2.894-0.808 1.614-0.679 3.63-0.496 5.37 0.205 1.942 0.812 3.814 1.44 5.657 0.352 1.036 0.709 2.071 1.016 3.122 1.012 3.475 0.478 6.26 1.908 9.575 0.681 1.579 2.368 2.642 4.043 2.013 1.85-0.699 2.49-2.639 2.608-4.452 0.189-2.881-1.434-4.644-3.042-6.811-0.976-1.312-1.863-2.937-1.377-4.618 0.25-0.874 0.802-1.655 1.307-2.398" fill="#276C9B"/>
<path d="m32.937 32.197c0 1.214-0.882 2.198-1.969 2.198-1.085 0-1.968-0.984-1.968-2.198 0-1.213 0.883-2.197 1.968-2.197 1.087 0 1.969 0.984 1.969 2.197" fill="#276C9B"/>
<path d="m28.779 32.274c0 0.704-0.399 1.275-0.889 1.275-0.493 0-0.89-0.571-0.89-1.275 0-0.703 0.397-1.274 0.89-1.274 0.49 0 0.889 0.571 0.889 1.274" fill="#276C9B"/>
<path d="m26.52 33.944c0 0.522-0.34 0.945-0.759 0.945-0.422 0-0.761-0.423-0.761-0.945 0-0.521 0.339-0.944 0.761-0.944 0.419 0 0.759 0.423 0.759 0.944" fill="#276C9B"/>
<path d="m24.518 34.944c0 0.522-0.339 0.945-0.758 0.945-0.421 0-0.76-0.423-0.76-0.945s0.339-0.944 0.76-0.944c0.419 0 0.758 0.422 0.758 0.944" fill="#276C9B"/>
<path d="m23.519 36.944c0 0.522-0.339 0.945-0.759 0.945-0.421 0-0.76-0.423-0.76-0.945s0.339-0.944 0.76-0.944c0.42 0 0.759 0.422 0.759 0.944" fill="#276C9B"/>
<path d="m47.82 45.712c-1.272-1.867-3.476-3.494-3.764-5.354-0.433-2.794 1.771-4.562 2.872-4.998 2.674-1.056 6.998 0.3 8.299 2.894 0.81 1.614 0.681 3.63 0.497 5.37-0.206 1.942-0.812 3.814-1.438 5.657-0.355 1.036-0.712 2.071-1.019 3.122-1.012 3.475-0.476 6.26-1.907 9.575-0.681 1.579-2.368 2.642-4.044 2.013-1.85-0.699-2.488-2.639-2.607-4.452-0.188-2.881 1.434-4.644 3.043-6.811 0.975-1.312 1.862-2.937 1.377-4.618-0.251-0.874-0.803-1.655-1.309-2.398" fill="#276C9B"/>
<path d="m44 32.197c0 1.214 0.881 2.198 1.967 2.198 1.087 0 1.969-0.984 1.969-2.198 0-1.213-0.882-2.197-1.969-2.197-1.086 0-1.967 0.984-1.967 2.197" fill="#276C9B"/>
<path d="m49 32.274c0 0.704 0.398 1.275 0.889 1.275 0.49 0 0.889-0.571 0.889-1.275 0-0.703-0.399-1.274-0.889-1.274-0.491 0-0.889 0.571-0.889 1.274" fill="#276C9B"/>
<path d="m51 33.944c0 0.522 0.339 0.945 0.759 0.945s0.759-0.423 0.759-0.945c0-0.521-0.339-0.944-0.759-0.944s-0.759 0.423-0.759 0.944" fill="#276C9B"/>
<path d="m53 34.944c0 0.522 0.339 0.945 0.759 0.945s0.759-0.423 0.759-0.945-0.339-0.944-0.759-0.944-0.759 0.422-0.759 0.944" fill="#276C9B"/>
<path d="m55 36.944c0 0.522 0.341 0.945 0.76 0.945 0.42 0 0.76-0.423 0.76-0.945s-0.34-0.944-0.76-0.944c-0.419 0-0.76 0.422-0.76 0.944" fill="#276C9B"/>
<path d="m13.701 18.873c0.039 0.11-9e-3 0.229-0.11 0.267l-1.088 0.403c-0.101 0.037-0.219-0.023-0.261-0.13l-2.227-5.693c-0.043-0.109 0.01-0.231 0.12-0.272l1.178-0.435c0.109-0.04 0.231 0.016 0.27 0.125l2.118 5.735" fill="#666"/>
<path d="m16.416 16.151c0.038 0.111-0.017 0.23-0.121 0.263l-0.649 0.212c-0.103 0.034-0.219-0.028-0.258-0.139l-1.377-3.985c-0.038-0.111 0.022-0.231 0.132-0.267l0.684-0.225c0.111-0.035 0.231 0.027 0.268 0.137l1.321 4.004" fill="#666"/>
<path d="m18.285 15.203c0.032 0.112-0.027 0.228-0.132 0.258l-0.656 0.185c-0.104 0.028-0.216-0.032-0.25-0.145l-1.237-4.031c-0.034-0.11 0.024-0.235 0.137-0.265l0.694-0.197c0.113-0.032 0.229 0.035 0.262 0.147l1.182 4.048" fill="#666"/>
<path d="m21.144 14.251c0.028 0.113-0.035 0.227-0.142 0.252 0 0-0.164 0.039-0.33 0.078-0.164 0.046-0.328 0.093-0.328 0.093-0.105 0.03-0.216-0.038-0.246-0.152l-1.091-4.073c-0.03-0.112 0.035-0.231 0.147-0.262 0 0 0.176-0.049 0.348-0.097 0.177-0.043 0.352-0.084 0.352-0.084 0.113-0.027 0.228 0.044 0.257 0.157l1.033 4.088" fill="#666"/>
<path d="m23.999 14.289c0.024 0.114-0.042 0.227-0.149 0.253l-0.659 0.157c-0.11 0.025-0.217-0.047-0.244-0.161l-0.942-4.11c-0.025-0.114 0.046-0.229 0.159-0.257l0.701-0.165c0.114-0.027 0.227 0.044 0.251 0.159l0.883 4.124" fill="#666"/>
<path d="m27.661 15.203c0.018 0.114-0.052 0.225-0.156 0.246l-1.133 0.217c-0.105 0.019-0.208-0.058-0.23-0.173l-1.138-6.005c-0.022-0.115 0.052-0.227 0.169-0.25l1.239-0.235c0.113-0.021 0.224 0.055 0.243 0.17l1.006 6.03" fill="#666"/>
<path d="m29.664 13.368c0.014 0.116-0.063 0.223-0.17 0.238l-0.673 0.096c-0.108 0.016-0.21-0.066-0.226-0.182l-0.593-4.175c-0.015-0.116 0.066-0.224 0.18-0.241l0.718-0.102c0.115-0.016 0.221 0.066 0.236 0.181l0.528 4.185" fill="#666"/>
<path d="m32.501 12.395c9e-3 0.117-0.07 0.22-0.179 0.23l-0.676 0.062c-0.108 0.01-0.206-0.077-0.219-0.193l-0.426-4.196c-0.011-0.116 0.074-0.22 0.19-0.23l0.721-0.067c0.117-0.011 0.22 0.076 0.228 0.192l0.361 4.202" fill="#666"/>
<path d="m35.331 12.416c5e-3 0.117-0.08 0.216-0.188 0.22l-0.678 0.028c-0.11 4e-3 -0.204-0.087-0.21-0.204l-0.255-4.209c-7e-3 -0.117 0.082-0.216 0.2-0.221l0.726-0.03c0.115-4e-3 0.216 0.087 0.222 0.203l0.183 4.213" fill="#666"/>
<path d="m38.159 12.432c0 0.118-0.089 0.212-0.197 0.21l-0.678-1e-3c-0.109 5e-3 -0.201-0.087-0.203-0.204l-0.081-4.216c-3e-3 -0.117 0.091-0.216 0.208-0.221h0.725c0.117 2e-3 0.214 0.099 0.214 0.216l0.012 4.216" fill="#666"/>
<path d="m41.538 14.365c-5e-3 0.115-0.095 0.205-0.201 0.198 0 0-0.067-5e-3 -0.168-0.01-0.109-6e-3 -0.257-0.012-0.406-0.011-0.287-3e-3 -0.573-7e-3 -0.573-7e-3 -0.108-1e-3 -0.191-0.098-0.19-0.214l0.144-6.112c2e-3 -0.116 0.1-0.211 0.217-0.209 0 0 0.316 4e-3 0.633 9e-3 0.318-2e-3 0.633 0.023 0.633 0.023 0.118 8e-3 0.209 0.11 0.203 0.227l-0.292 6.106" fill="#666"/>
<path d="m44.076 12.477c-0.01 0.117-0.107 0.206-0.217 0.198l-0.676-0.047c-0.109-7e-3 -0.191-0.108-0.182-0.226l0.313-4.204c8e-3 -0.117 0.11-0.205 0.227-0.197l0.726 0.05c0.116 8e-3 0.202 0.111 0.192 0.227l-0.383 4.199" fill="#666"/>
<path d="m47.069 13.509c-0.015 0.116-0.116 0.2-0.224 0.186l-0.672-0.085c-0.108-0.014-0.184-0.12-0.172-0.237l0.492-4.186c0.014-0.117 0.118-0.2 0.236-0.185l0.722 0.091c0.115 0.014 0.196 0.121 0.18 0.237l-0.562 4.179" fill="#666"/>
<path d="m50.064 13.536c-0.022 0.116-0.127 0.193-0.235 0.173l-0.665-0.125c-0.107-0.021-0.179-0.131-0.161-0.246l0.674-4.163c0.019-0.115 0.128-0.193 0.244-0.171l0.713 0.133c0.115 0.022 0.193 0.134 0.172 0.248l-0.742 4.151" fill="#666"/>
<path d="m52.061 14.519c-0.027 0.114-0.133 0.186-0.239 0.159l-0.665-0.13c-0.107-0.021-0.176-0.13-0.152-0.245l0.849-4.131c0.023-0.114 0.137-0.19 0.252-0.169l0.713 0.141c0.112 0.029 0.184 0.146 0.16 0.259l-0.918 4.116" fill="#666"/>
<path d="m55.5 16.462c-0.029 0.112-0.139 0.184-0.243 0.158l-1.114-0.277c-0.105-0.027-0.164-0.141-0.136-0.253l1.488-5.929c0.03-0.113 0.146-0.183 0.258-0.155l1.231 0.309c0.112 0.028 0.181 0.144 0.15 0.256l-1.634 5.891" fill="#666"/>
<path d="m58.038 15.507c-0.035 0.111-0.15 0.176-0.254 0.143l-0.647-0.204c-0.105-0.034-0.161-0.151-0.127-0.263l1.231-4.033c0.033-0.112 0.153-0.175 0.265-0.14l0.694 0.219c0.11 0.034 0.171 0.155 0.135 0.265l-1.297 4.013" fill="#666"/>
<path d="m61.02 16.504c-0.041 0.109-0.158 0.167-0.258 0.128l-0.635-0.244c-0.101-0.039-0.153-0.16-0.113-0.271l1.397-3.978c0.039-0.11 0.16-0.167 0.268-0.125l0.676 0.259c0.112 0.042 0.166 0.166 0.125 0.274l-1.46 3.957" fill="#666"/>
<path d="m64.023 17.44c-0.043 0.108-0.163 0.164-0.268 0.125l-0.632-0.243c-0.103-0.039-0.15-0.159-0.108-0.268l1.56-3.919c0.044-0.108 0.168-0.163 0.276-0.121l0.678 0.261c0.109 0.041 0.16 0.165 0.116 0.272l-1.622 3.893" fill="#666"/>
<path d="m66.003 18.427c-0.049 0.107-0.17 0.155-0.271 0.111l-0.618-0.282c-0.099-0.045-0.141-0.169-0.095-0.277l1.711-3.854c0.048-0.107 0.174-0.155 0.281-0.106l-0.396 3.083-0.612 1.325" fill="#666"/>
<path d="m10 12.365c2.442-0.915 4.836-1.682 7.162-2.322-2.343 0.647-4.734 1.416-7.162 2.322m16.911-4.4c4.806-0.733 9.084-0.965 12.579-0.965 4.298 0 7.409 0.351 8.851 0.555-2.812-0.317-5.876-0.514-9.15-0.514-3.825 0-7.94 0.268-12.28 0.924" fill="#7797B0"/>
<path d="m12.895 29.985l-2.895-17.661c2.428-0.906 4.819-1.675 7.162-2.322 3.419-0.942 6.691-1.611 9.749-2.078 4.34-0.656 8.455-0.924 12.28-0.924 3.274 0 6.338 0.197 9.15 0.514 0.587 0.083 0.898 0.142 0.898 0.142-0.475 0.221-0.962 0.455-1.458 0.699-0.028-0.068-0.09-0.119-0.167-0.129l-0.722-0.091c-9e-3 -2e-3 -0.018-2e-3 -0.027-2e-3 -0.107 0-0.196 0.079-0.209 0.187l-0.075 0.637c-0.609 0.311-1.232 0.636-1.864 0.973l0.165-1.81c0.01-0.116-0.076-0.219-0.192-0.227l-0.726-0.05c-5e-3 -1e-3 -0.01-1e-3 -0.014-1e-3 -0.111 0-0.205 0.086-0.213 0.198l-0.188 2.52c-0.595 0.326-1.197 0.659-1.806 1.002l0.174-3.647c6e-3 -0.117-0.085-0.219-0.203-0.227 0 0-0.292-0.023-0.597-0.023h-0.036c-0.317-5e-3 -0.633-9e-3 -0.633-9e-3h-3e-3c-0.115 0-0.212 0.094-0.214 0.209l-0.109 4.619c-12.727 7.324-27.227 17.501-27.227 17.501m-1.002-17.368c-0.024 0-0.049 4e-3 -0.072 0.013l-1.178 0.435c-0.11 0.041-0.163 0.163-0.12 0.272l2.227 5.693c0.034 0.086 0.116 0.141 0.199 0.141 0.021 0 0.042-4e-3 0.062-0.011l1.088-0.403c0.101-0.038 0.149-0.157 0.11-0.267l-2.118-5.735c-0.03-0.085-0.112-0.138-0.198-0.138m2.776-0.98c-0.021 0-0.043 3e-3 -0.064 0.01l-0.684 0.225c-0.11 0.036-0.17 0.156-0.132 0.267l1.377 3.985c0.032 0.09 0.114 0.148 0.2 0.148 0.019 0 0.039-3e-3 0.058-9e-3l0.649-0.212c0.104-0.033 0.159-0.152 0.121-0.263l-1.321-4.004c-0.03-0.089-0.114-0.147-0.204-0.147m2.775-0.873c-0.019 0-0.038 3e-3 -0.057 8e-3l-0.694 0.197c-0.113 0.03-0.171 0.155-0.137 0.265l1.237 4.031c0.029 0.095 0.112 0.152 0.199 0.152 0.017 0 0.034-2e-3 0.051-7e-3l0.656-0.185c0.105-0.03 0.164-0.146 0.132-0.258l-1.182-4.048c-0.028-0.093-0.112-0.155-0.205-0.155m9.075-2.115c-0.013 0-0.025 2e-3 -0.038 4e-3l-1.239 0.235c-0.117 0.023-0.191 0.135-0.169 0.25l1.138 6.005c0.019 0.103 0.105 0.176 0.197 0.176 0.011 0 0.022-1e-3 0.033-3e-3l1.133-0.217c0.104-0.021 0.174-0.132 0.156-0.246l-1.006-6.03c-0.017-0.102-0.106-0.174-0.205-0.174m-6.234 1.329c-0.016 0-0.033 2e-3 -0.049 6e-3 0 0-0.175 0.041-0.352 0.084-0.172 0.048-0.348 0.097-0.348 0.097-0.112 0.031-0.177 0.15-0.147 0.262l1.091 4.073c0.025 0.095 0.108 0.159 0.195 0.159 0.017 0 0.034-3e-3 0.051-7e-3 0 0 0.164-0.047 0.328-0.093 0.166-0.039 0.33-0.078 0.33-0.078 0.107-0.025 0.17-0.139 0.142-0.252l-1.033-4.088c-0.025-0.097-0.112-0.163-0.208-0.163m2.8-0.665c-0.015 0-0.032 2e-3 -0.048 6e-3l-0.701 0.165c-0.113 0.028-0.184 0.143-0.159 0.257l0.942 4.11c0.023 0.099 0.107 0.166 0.2 0.166 0.014 0 0.029-2e-3 0.044-5e-3l0.659-0.157c0.107-0.026 0.173-0.139 0.149-0.253l-0.883-4.124c-0.021-0.099-0.107-0.165-0.203-0.165m6.364-1.091c-9e-3 0-0.019 1e-3 -0.029 2e-3l-0.718 0.102c-0.114 0.017-0.195 0.125-0.18 0.241l0.593 4.175c0.015 0.107 0.102 0.184 0.2 0.184 8e-3 0 0.017-1e-3 0.026-2e-3l0.673-0.096c0.107-0.015 0.184-0.122 0.17-0.238l-0.528-4.185c-0.014-0.105-0.103-0.183-0.207-0.183m2.906-0.309c-7e-3 0-0.013 0-0.02 1e-3l-0.721 0.067c-0.116 0.01-0.201 0.114-0.19 0.23l0.426 4.196c0.012 0.11 0.101 0.194 0.201 0.194 6e-3 0 0.012-1e-3 0.018-1e-3l0.676-0.062c0.109-0.01 0.188-0.113 0.179-0.23l-0.361-4.202c-8e-3 -0.11-0.099-0.193-0.208-0.193m2.953-0.2h-7e-3l-0.726 0.03c-0.118 5e-3 -0.207 0.104-0.2 0.221l0.255 4.209c6e-3 0.114 0.095 0.204 0.202 0.204h8e-3l0.678-0.028c0.108-4e-3 0.193-0.103 0.188-0.22l-0.183-4.213c-6e-3 -0.114-0.103-0.203-0.215-0.203m2.235 4.554l0.678 1e-3h3e-3c0.107 0 0.194-0.094 0.194-0.21l-0.012-4.216c0-0.117-0.097-0.214-0.214-0.216h-0.725c-0.117 5e-3 -0.211 0.104-0.208 0.221l0.081 4.216c2e-3 0.115 0.09 0.204 0.196 0.204h7e-3" fill="#F0F0F0"/>
<path d="m12.441 19.554c-0.083 0-0.165-0.055-0.199-0.141l-2.227-5.693c-0.043-0.109 0.01-0.231 0.12-0.272l1.178-0.435c0.023-9e-3 0.048-0.013 0.072-0.013 0.086 0 0.168 0.053 0.198 0.138l2.118 5.735c0.039 0.11-9e-3 0.229-0.11 0.267l-1.088 0.403c-0.02 7e-3 -0.041 0.011-0.062 0.011" fill="#A3A3A3"/>
<path d="m15.588 16.635c-0.086 0-0.168-0.058-0.2-0.148l-1.377-3.985c-0.038-0.111 0.022-0.231 0.132-0.267l0.684-0.225c0.021-7e-3 0.043-0.01 0.064-0.01 0.09 0 0.174 0.058 0.204 0.147l1.321 4.004c0.038 0.111-0.017 0.23-0.121 0.263l-0.649 0.212c-0.019 6e-3 -0.039 9e-3 -0.058 9e-3" fill="#A3A3A3"/>
<path d="m17.446 15.653c-0.087 0-0.17-0.057-0.199-0.152l-1.237-4.031c-0.034-0.11 0.024-0.235 0.137-0.265l0.694-0.197c0.019-5e-3 0.038-8e-3 0.057-8e-3 0.093 0 0.177 0.062 0.205 0.155l1.182 4.048c0.032 0.112-0.027 0.228-0.132 0.258l-0.656 0.185c-0.017 5e-3 -0.034 7e-3 -0.051 7e-3" fill="#A3A3A3"/>
<path d="m20.293 14.681c-0.087 0-0.17-0.064-0.195-0.159l-1.091-4.073c-0.03-0.112 0.035-0.231 0.147-0.262 0 0 0.176-0.049 0.348-0.097 0.177-0.043 0.352-0.084 0.352-0.084 0.016-4e-3 0.033-6e-3 0.049-6e-3 0.096 0 0.183 0.066 0.208 0.163l1.033 4.088c0.028 0.113-0.035 0.227-0.142 0.252 0 0-0.164 0.039-0.33 0.078-0.164 0.046-0.328 0.093-0.328 0.093-0.017 4e-3 -0.034 7e-3 -0.051 7e-3" fill="#A3A3A3"/>
<path d="m23.147 14.704c-0.093 0-0.177-0.067-0.2-0.166l-0.942-4.11c-0.025-0.114 0.046-0.229 0.159-0.257l0.701-0.165c0.016-4e-3 0.033-6e-3 0.048-6e-3 0.096 0 0.182 0.066 0.203 0.165l0.883 4.124c0.024 0.114-0.042 0.227-0.149 0.253l-0.659 0.157c-0.015 3e-3 -0.03 5e-3 -0.044 5e-3" fill="#A3A3A3"/>
<path d="m26.339 15.67c-0.092 0-0.178-0.073-0.197-0.176l-1.138-6.005c-0.022-0.115 0.052-0.227 0.169-0.25l1.239-0.235c0.013-2e-3 0.025-4e-3 0.038-4e-3 0.099 0 0.188 0.072 0.205 0.174l1.006 6.03c0.018 0.114-0.052 0.225-0.156 0.246l-1.133 0.217c-0.011 2e-3 -0.022 3e-3 -0.033 3e-3" fill="#A3A3A3"/>
<path d="m28.795 13.704c-0.098 0-0.185-0.077-0.2-0.184l-0.593-4.175c-0.015-0.116 0.066-0.224 0.18-0.241l0.718-0.102c0.01-1e-3 0.02-2e-3 0.029-2e-3 0.104 0 0.193 0.078 0.207 0.183l0.528 4.185c0.014 0.116-0.063 0.223-0.17 0.238l-0.673 0.096c-9e-3 1e-3 -0.018 2e-3 -0.026 2e-3" fill="#A3A3A3"/>
<path d="m31.628 12.688c-0.1 0-0.189-0.084-0.201-0.194l-0.426-4.196c-0.011-0.116 0.074-0.22 0.19-0.23l0.721-0.067c7e-3 -1e-3 0.013-1e-3 0.02-1e-3 0.109 0 0.2 0.083 0.208 0.193l0.361 4.202c9e-3 0.117-0.07 0.22-0.179 0.23l-0.676 0.062c-6e-3 0-0.012 1e-3 -0.018 1e-3" fill="#A3A3A3"/>
<path d="m34.457 12.664c-0.107 0-0.196-0.09-0.202-0.204l-0.255-4.209c-7e-3 -0.117 0.082-0.216 0.2-0.221l0.726-0.03h7e-3c0.112 0 0.209 0.089 0.215 0.203l0.183 4.213c5e-3 0.117-0.08 0.216-0.188 0.22l-0.678 0.028h-8e-3" fill="#A3A3A3"/>
<path d="m37.965 12.642h-3e-3l-0.678-1e-3h-7e-3c-0.106 0-0.194-0.089-0.196-0.204l-0.081-4.216c-3e-3 -0.117 0.091-0.216 0.208-0.221h0.725c0.117 2e-3 0.214 0.099 0.214 0.216l0.012 4.216c0 0.116-0.087 0.21-0.194 0.21" fill="#A3A3A3"/>
<path d="m40 12.828l0.109-4.619c2e-3 -0.115 0.099-0.209 0.214-0.209h3e-3s0.316 4e-3 0.633 9e-3h0.036c0.305 0 0.597 0.023 0.597 0.023 0.118 8e-3 0.209 0.11 0.203 0.227l-0.174 3.647c-0.536 0.301-1.077 0.609-1.621 0.922" fill="#A3A3A3"/>
<path d="m43 10.718l0.188-2.52c8e-3 -0.112 0.102-0.198 0.213-0.198 4e-3 0 9e-3 0 0.014 1e-3l0.726 0.05c0.116 8e-3 0.202 0.111 0.192 0.227l-0.165 1.81c-0.385 0.206-0.775 0.416-1.168 0.63" fill="#A3A3A3"/>
<path d="m46 9.824l0.075-0.637c0.013-0.108 0.102-0.187 0.209-0.187 9e-3 0 0.018 0 0.027 2e-3l0.722 0.091c0.077 0.01 0.139 0.061 0.167 0.129-0.394 0.194-0.794 0.395-1.2 0.602" fill="#A3A3A3"/>
</g>
</svg>
